<?xml version="1.0" encoding="iso-8859-1"?>
<!-- Generator: Adobe Illustrator 19.0.0, SVG Export Plug-In . SVG Version: 6.00 Build 0)  -->
<svg version="1.1" id="Capa_1" xmlns="http://www.w3.org/2000/svg" xmlns:xlink="http://www.w3.org/1999/xlink" x="0px" y="0px"
	 viewBox="0 0 511.999 511.999" style="enable-background:new 0 0 511.999 511.999;" xml:space="preserve">
<path style="fill:#543A33;" d="M182.336,165.718l-0.16-91.276c-0.01-6.089,4.917-11.035,11.007-11.046
	c5.636-0.01,10.29,4.212,10.962,9.668l11.242,90.582c1.128,9.092-5.327,17.377-14.419,18.506
	c-9.092,1.128-17.377-5.327-18.506-14.419C182.383,167.087,182.341,166.352,182.336,165.718z"/>
<path style="fill:#6D4D42;" d="M243.13,208.372c-6.146-17.9-18.547-32.583-32.538-44.994
	c-25.602-22.712-55.685-39.843-85.482-57.227c-1.986-4.606-3.711-9.264-5.195-14.098c-6.405-20.866-7.441-44.134-7.455-65.824
	c0-0.003,0-0.437,0-0.437c-0.03-5.689-4.391-10.522-10.17-11.03c-6.132-0.539-11.538,3.996-12.077,10.127
	c-0.323,3.472-0.573,6.953-0.8,10.432c-1.085,16.605-1.052,33.426,1.096,49.93C61.3,66.538,34.3,45.223,14.462,15.24
	c-1.801-2.722-5.186-4.14-8.526-3.288c-4.219,1.077-6.766,5.369-5.69,9.588c8.228,32.252,29.494,58.081,54.913,80.051
	c-13.812,1.049-27.776,0.39-41.538-1.691c-5.031-0.759-10.111,1.735-11.761,6.757c-1.745,5.312,1.147,11.032,6.458,12.776
	c26.519,8.711,54.878,12.846,82.645,9.551c11.803,8.211,23.639,15.918,34.793,23.325c28.735,19.079,66.92,36.399,81.243,69.966
	c0.023,0.055,0.065,0.152,0.065,0.152c3.995,9.155,14.42,13.854,24.034,10.553C241.218,229.506,246.604,218.489,243.13,208.372z"/>
<path style="fill:#543A33;" d="M329.663,165.718l0.16-91.276c0.01-6.089-4.917-11.035-11.007-11.046
	c-5.636-0.01-10.29,4.212-10.962,9.668l-11.242,90.582c-1.128,9.092,5.327,17.377,14.419,18.506
	c9.092,1.128,17.377-5.327,18.506-14.419C329.616,167.087,329.657,166.352,329.663,165.718z"/>
<path style="fill:#6D4D42;" d="M268.868,208.372c6.146-17.9,18.547-32.583,32.538-44.994c25.602-22.712,55.685-39.843,85.482-57.227
	c1.986-4.606,3.711-9.264,5.195-14.098c6.405-20.866,7.441-44.134,7.455-65.824c0-0.003,0-0.437,0-0.437
	c0.03-5.689,4.391-10.522,10.17-11.03c6.132-0.539,11.538,3.996,12.077,10.127c0.324,3.472,0.573,6.953,0.8,10.432
	c1.085,16.605,1.052,33.426-1.096,49.93c29.208-18.712,56.209-40.027,76.046-70.01c1.801-2.722,5.186-4.14,8.526-3.288
	c4.219,1.077,6.766,5.369,5.69,9.588c-8.228,32.252-29.495,58.081-54.914,80.051c13.812,1.049,27.776,0.39,41.538-1.691
	c5.031-0.759,10.11,1.735,11.761,6.757c1.745,5.312-1.147,11.032-6.458,12.776c-26.519,8.711-54.878,12.846-82.645,9.551
	c-11.803,8.211-23.639,15.918-34.793,23.325c-28.734,19.079-66.92,36.399-81.243,69.966c-0.023,0.055-0.065,0.152-0.065,0.152
	c-3.995,9.155-14.42,13.854-24.034,10.553C270.78,229.506,265.395,218.489,268.868,208.372z"/>
<path style="fill:#99533E;" d="M57.589,188.841c-2.889-7.497,3.044-15.453,11.063-14.858c26.109,1.94,78.253,11.595,110.649,56.284
	l11.772,31.635l-22.97,9.04L57.589,188.841z"/>
<path style="fill:#8C4D39;" d="M157.481,207.154c-6.472,9.111-13.867,23.085-17.792,42.678l28.413,21.108l22.97-9.04L179.3,230.266
	C172.718,221.184,165.311,213.571,157.481,207.154z"/>
<path style="fill:#E57C5B;" d="M168.102,270.94c-69.891,0.521-99.899-54.584-110.513-82.1
	C57.589,188.841,162.253,218.192,168.102,270.94z"/>
<path style="fill:#99533E;" d="M454.41,188.841c2.889-7.497-3.044-15.453-11.063-14.858c-26.109,1.94-78.253,11.595-110.649,56.284
	l-11.772,31.635l22.97,9.04L454.41,188.841z"/>
<path style="fill:#8C4D39;" d="M354.518,207.154c6.472,9.111,13.867,23.085,17.792,42.678l-28.413,21.108l-22.97-9.04l11.772-31.635
	C339.281,221.184,346.688,213.571,354.518,207.154z"/>
<path style="fill:#E57C5B;" d="M343.896,270.94c69.891,0.521,99.899-54.584,110.513-82.1
	C454.41,188.841,349.746,218.192,343.896,270.94z"/>
<path style="fill:#B26147;" d="M207.907,442.975v11.851c0,25.925,21.649,46.682,47.543,45.412c0.357-0.018,0.548-0.031,0.548-0.031
	s0.191,0.013,0.548,0.031c25.894,1.269,47.543-19.487,47.543-45.412v-11.851H207.907z"/>
<g>
	<path style="fill:#543A33;" d="M207.002,222.275c0.023,0.055,0.065,0.151,0.065,0.151c3.995,9.155,14.42,13.853,24.034,10.553
		c10.117-3.474,15.503-14.491,12.029-24.608c-5.335-15.539-15.388-28.651-27.099-39.961c-16.032,4.184-28.539,10.725-38.263,18.015
		C190.174,196.314,200.816,207.776,207.002,222.275z"/>
	<path style="fill:#543A33;" d="M334.264,186.398c-11.88-8.908-25.14-14.532-38.326-17.959
		c-11.699,11.303-21.74,24.406-27.071,39.933c-3.474,10.116,1.912,21.134,12.029,24.608c9.613,3.301,20.039-1.397,24.034-10.553
		c0,0,0.041-0.098,0.065-0.151C311.188,207.763,321.844,196.292,334.264,186.398z"/>
</g>
<g>
	<path style="fill:#CC6E50;" d="M168.102,270.94c-1.634-14.732-10.978-27.637-23.593-38.589c-3.445,9.617-6.152,21.181-7.169,34.848
		C146.617,269.657,156.838,271.024,168.102,270.94z"/>
	<path style="fill:#CC6E50;" d="M343.896,270.94c1.634-14.732,10.978-27.637,23.593-38.589c3.445,9.617,6.152,21.181,7.169,34.848
		C365.382,269.657,355.161,271.024,343.896,270.94z"/>
</g>
<path style="fill:#B26147;" d="M255.999,194.544c-92.965,0-97.063,75.844-80.671,134.276c13.576,48.37,4.671,64.416,15.744,96.427
	h129.844l0.01,0.01c11.073-32.02,2.169-48.067,15.744-96.437C353.062,270.388,348.964,194.544,255.999,194.544z"/>
<circle style="fill:#202020;" cx="206.582" cy="321.004" r="11.662"/>
<path style="fill:#E57C5B;" d="M320.927,425.256c-2.315,6.652-5.474,13.993-9.885,22.449
	c-12.293,24.597-55.043,21.531-55.043,21.531s-42.749,3.066-55.043-21.531c-4.41-8.466-7.57-15.807-9.885-22.459h0.01
	c23.012-37.537,64.917,0,64.917,0s41.905-37.537,64.917,0L320.927,425.256z"/>
<ellipse transform="matrix(-0.4019 -0.9157 0.9157 -0.4019 -85.9547 817.4536)" style="fill:#424342;" cx="223.994" cy="436.799" rx="17.678" ry="12.315"/>
<circle style="fill:#202020;" cx="305.417" cy="321.004" r="11.662"/>
<ellipse transform="matrix(-0.4019 0.9157 -0.9157 -0.4019 803.6684 348.5984)" style="fill:#424342;" cx="287.986" cy="436.768" rx="17.678" ry="12.315"/>
<g>
</g>
<g>
</g>
<g>
</g>
<g>
</g>
<g>
</g>
<g>
</g>
<g>
</g>
<g>
</g>
<g>
</g>
<g>
</g>
<g>
</g>
<g>
</g>
<g>
</g>
<g>
</g>
<g>
</g>
</svg>
