<?xml version="1.0" encoding="utf-8"?>
<!-- Generator: Adobe Illustrator 16.0.0, SVG Export Plug-In . SVG Version: 6.00 Build 0)  -->
<!DOCTYPE svg PUBLIC "-//W3C//DTD SVG 1.1//EN" "http://www.w3.org/Graphics/SVG/1.1/DTD/svg11.dtd">
<svg version="1.1" id="Calque_1" xmlns="http://www.w3.org/2000/svg" xmlns:xlink="http://www.w3.org/1999/xlink" x="0px" y="0px"
	 width="960px" height="560px" viewBox="0 0 960 560" enable-background="new 0 0 960 560" xml:space="preserve">
<g>
	<g>
		<path fill="#3A3B3A" d="M594.764,395.729l-29.789,0.001c0-51.597-47.262-96.573-48.072-97.336
			c-6.016-5.602-6.358-15.019-0.762-21.039c5.601-6.029,15.025-6.372,21.05-0.773C539.541,278.767,594.764,330.825,594.764,395.729
			L594.764,395.729z"/>
		<path fill="#3A3B3A" d="M656.697,385.941H626.91c0-51.741-47.531-96.828-48.08-97.342c-6.01-5.6-6.351-15.012-0.756-21.033
			c5.599-6.025,15.025-6.372,21.049-0.771C601.474,268.978,656.697,321.038,656.697,385.941L656.697,385.941z"/>
	</g>
	<g display="none">
		<path display="inline" fill="#2DAA8C" d="M419.334,431.361c-2.111-25.688-17.788-47.003-39.407-57.507
			c-19.613,13.892-31.604,37.478-29.493,63.168s17.788,47.003,39.407,57.508C409.455,480.637,421.444,457.052,419.334,431.361z"/>
		<path display="inline" fill="#2DAA8C" d="M316.76,344.361c25.69-2.11,49.276,9.879,63.168,29.493
			c-10.504,21.618-31.817,37.296-57.507,39.406s-49.276-9.879-63.168-29.493C269.757,362.147,291.07,346.471,316.76,344.361z"/>
	</g>
	<path display="none" fill="#0FEFBA" d="M367.128,442.382c16.674-19.659,20.657-45.813,12.8-68.528
		c-23.693-4.046-48.847,4.153-65.521,23.813c-16.674,19.658-20.658,45.813-12.8,68.528
		C325.3,470.24,350.455,462.039,367.128,442.382z"/>
	<path fill="#424342" d="M333.952,478.546c51.209-31.02,133.788-102.013,145.201-169.847l-56.147,5.4
		c-50.03,53.339-85.294,117.625-102.325,152.296C316.55,474.808,325.937,483.401,333.952,478.546z"/>
	<path fill="#333333" d="M677.685,101.255l30.915,12.357c16.137-2.3,27.063-9.439,33.76-15.63
		c5.903-5.457,4.109-15.286-3.336-18.318c-16.115-6.566-40.875-8.199-40.875-8.199L677.685,101.255z"/>
	<path fill="#424342" d="M460.395,179.95l11.546-41.416C457.452,46.468,513.929,0,578.031,0
		c64.102,0,173.717,44.905,114.144,221.425c-2.62,7.757-5.528,15.024-8.697,21.804L460.395,179.95z"/>
	<g>
		<path fill="#333333" d="M460.396,179.951l223.083,63.278c1.288-2.756,2.522-5.615,3.723-8.533l-193.002-54.745l11.545-41.416
			C492.51,54.445,538.48,8.402,595.39,1.054C589.36,0.339,583.525,0,578.031,0c-64.104,0-120.58,46.468-106.091,138.534
			L460.396,179.951z"/>
		<path fill="#333333" d="M410.449,345.484c1.322,0.531,20.219,7.991,48.32,14.144c10.188-16.723,17.522-33.924,20.383-50.927
			l-56.147,5.4c-8.228,8.77-16.045,17.838-23.458,27.021L410.449,345.484z"/>
	</g>
	<g>
		<path fill="#2D2E2E" d="M599.123,266.794c-6.024-5.601-15.449-5.253-21.049,0.771c-5.595,6.021-5.255,15.432,0.756,21.033
			c0.397,0.373,25.504,24.194,39.272,56.993c9.296-3.992,18.107-8.674,26.386-14.078
			C628.08,294.073,600.761,268.316,599.123,266.794z"/>
		<path fill="#2D2E2E" d="M531.505,325.211c0.448,0.422,15.062,14.332,28.06,35.393c10.83-1.201,15.366-1.678,25.301-4.256
			c-16.264-30.188-31.635-51.611-33.072-52.947c-6.026-5.599-15.449-5.253-21.05,0.773
			C525.147,310.195,525.49,319.61,531.505,325.211z"/>
	</g>
	<path fill="#EFEF92" d="M460.394,179.951l111.369-34.207c43.489-24.034,118.588,16.084,111.713,97.485
		c-68.903,147.518-260.471,70.87-260.471,70.87L460.394,179.951z"/>
	<circle fill="#202020" cx="640.817" cy="77.307" r="14.806"/>
	<path display="none" fill="#896C64" d="M468.201,456.599C502.89,489.043,536.21,522.505,565.476,560h67.939
		c-0.616-0.906-1.247-1.824-1.902-2.75c-41.579-58.803-94.237-107.984-149.266-153.979C407.89,341.125,330.281,282.789,249,229.973
		c-10.553-6.855-23.862-10.367-32.439,2c-6.282,9.057-4.033,21.489,5.022,27.771c0,0,0.128,0.089,0.148,0.103
		C308.162,319.771,391.352,384.722,468.201,456.599z"/>
	<path display="none" fill="#59433D" d="M509.599,471.172c-85.922-79.854-178.934-152.013-275.567-218.588
		c-0.023-0.017-0.165-0.114-0.165-0.114c-9.226-6.359-12.105-18.386-7.235-28.084c-3.706,1.031-7.16,3.394-10.069,7.587
		c-6.281,9.057-4.033,21.489,5.023,27.771c0,0,0.128,0.089,0.149,0.103c86.43,59.927,169.62,124.877,246.47,196.754
		c34.688,32.444,68.01,65.907,97.276,103.401h31.356C569.674,528.605,540.114,499.531,509.599,471.172z"/>
	<g display="none">
		<circle display="inline" fill="#E854BE" cx="291.372" cy="247.672" r="20.338"/>
		<circle display="inline" fill="#E854BE" cx="380.251" cy="377.769" r="20.338"/>
		<circle display="inline" fill="#E854BE" cx="579.508" cy="489.7" r="20.338"/>
	</g>
	<path fill="#EFEF92" d="M484.808,330.191c22.009-4.293,43.55-11.124,61.696-21.805c12.414-7.291,23.232-16.381,31.525-27.678
		c11.021-14.965,17.611-33.791,17.611-57.442c0-31.545-19.846-58.741-47.31-70.325l-87.937,27.011L423.005,314.1
		C423.005,314.1,448.774,324.409,484.808,330.191z"/>
	<path fill="#0FEFBA" d="M448.025,157.013v41.572l73.808,59.587h56.196c11.021-14.965,17.61-33.792,17.61-57.442
		c0-43.157-37.128-78.21-80.117-76.221c-0.069,0.012-0.129,0.012-0.188,0.012C490.051,125.749,467.531,138.582,448.025,157.013z"/>
	<path fill="#424342" d="M380.527,313.621c40.465,1.968,116.053,1.61,165.976-27.772l-24.669-27.677l-73.808-59.587l-25.021-13.153
		c-27.69,36.996-46.826,81.796-56.357,107.043C362.895,302.41,369.925,313.11,380.527,313.621z"/>
	<path fill="#EEEEEC" d="M448.024,157.016c25.521,49.161,72.801,86.586,130.003,101.158c-8.293,11.294-19.109,20.385-31.525,27.677
		c-52.401-18.886-96.069-54.726-123.497-100.419C430.69,175.16,439.043,165.497,448.024,157.016z"/>
</g>
</svg>
