<?xml version="1.0" encoding="utf-8"?>
<!-- Generator: Adobe Illustrator 16.0.0, SVG Export Plug-In . SVG Version: 6.00 Build 0)  -->
<!DOCTYPE svg PUBLIC "-//W3C//DTD SVG 1.1//EN" "http://www.w3.org/Graphics/SVG/1.1/DTD/svg11.dtd">
<svg version="1.1" id="Calque_1" xmlns="http://www.w3.org/2000/svg" xmlns:xlink="http://www.w3.org/1999/xlink" x="0px" y="0px"
	 width="960px" height="560px" viewBox="0 0 960 560" enable-background="new 0 0 960 560" xml:space="preserve">
<g>
	<g>
		<path fill="#3A3B3A" d="M470.789,395.729c0-64.903,55.223-116.962,57.573-119.147c6.024-5.599,15.449-5.256,21.05,0.773
			c5.597,6.021,5.254,15.438-0.762,21.039c-0.811,0.763-48.072,45.739-48.072,97.336L470.789,395.729L470.789,395.729z"/>
		<path fill="#3A3B3A" d="M408.855,385.941c0-64.902,55.224-116.963,57.574-119.146c6.023-5.601,15.45-5.254,21.049,0.771
			c5.595,6.021,5.254,15.434-0.756,21.033c-0.549,0.514-48.08,45.601-48.08,97.342H408.855L408.855,385.941z"/>
	</g>
	<g display="none">
		<path display="inline" fill="#2DAA8C" d="M419.334,431.361c-2.111-25.688-17.788-47.003-39.407-57.507
			c-19.613,13.892-31.604,37.478-29.493,63.168s17.788,47.003,39.407,57.508C409.455,480.637,421.444,457.052,419.334,431.361z"/>
		<path display="inline" fill="#2DAA8C" d="M316.76,344.361c25.69-2.11,49.276,9.879,63.168,29.493
			c-10.504,21.618-31.817,37.296-57.507,39.406s-49.276-9.879-63.168-29.493C269.757,362.147,291.07,346.471,316.76,344.361z"/>
	</g>
	<path display="none" fill="#0FEFBA" d="M367.128,442.382c16.674-19.659,20.657-45.813,12.8-68.528
		c-23.693-4.046-48.847,4.153-65.521,23.813c-16.674,19.658-20.658,45.813-12.8,68.528
		C325.3,470.24,350.455,462.039,367.128,442.382z"/>
	<path fill="#424342" d="M744.872,466.396c-17.031-34.671-52.295-98.957-102.325-152.296l-56.147-5.4
		c11.413,67.834,93.992,138.827,145.201,169.847C739.616,483.401,749.003,474.808,744.872,466.396z"/>
	<path fill="#333333" d="M367.404,71.465c0,0-24.76,1.633-40.875,8.199c-7.445,3.032-9.239,12.861-3.336,18.318
		c6.697,6.19,17.623,13.33,33.76,15.63l30.915-12.357L367.404,71.465z"/>
	<path fill="#424342" d="M382.075,243.229c-3.169-6.779-6.077-14.047-8.697-21.804C313.805,44.906,423.42,0,487.521,0
		c64.103,0,120.579,46.468,106.091,138.534l11.546,41.416L382.075,243.229z"/>
	<g>
		<path fill="#333333" d="M593.612,138.534C608.102,46.468,551.625,0,487.521,0c-5.494,0-11.329,0.339-17.358,1.054
			c56.909,7.348,102.88,53.391,89.646,137.481l11.545,41.416l-193.002,54.745c1.2,2.918,2.435,5.777,3.723,8.533l223.083-63.278
			L593.612,138.534z"/>
		<path fill="#333333" d="M666.006,341.122c-7.413-9.184-15.23-18.252-23.458-27.021l-56.147-5.4
			c2.86,17.003,10.194,34.204,20.383,50.927c28.102-6.152,46.998-13.612,48.32-14.144L666.006,341.122z"/>
	</g>
	<g>
		<path fill="#2D2E2E" d="M421.064,331.514c8.278,5.404,17.09,10.086,26.386,14.078c13.769-32.799,38.875-56.62,39.272-56.993
			c6.011-5.602,6.351-15.013,0.756-21.033c-5.6-6.024-15.024-6.372-21.049-0.771C464.792,268.316,437.473,294.073,421.064,331.514z"
			/>
		<path fill="#2D2E2E" d="M534.81,304.174c-5.601-6.026-15.023-6.372-21.05-0.773c-1.438,1.336-16.809,22.76-33.072,52.947
			c9.935,2.578,14.471,3.055,25.301,4.256c12.998-21.061,27.611-34.971,28.06-35.393C540.063,319.61,540.405,310.195,534.81,304.174
			z"/>
	</g>
	<path fill="#EFEF92" d="M642.548,314.1c0,0-191.567,76.647-260.471-70.87c-6.875-81.401,68.224-121.52,111.713-97.485
		l111.369,34.207L642.548,314.1z"/>
	<circle fill="#202020" cx="424.735" cy="77.307" r="14.806"/>
	<path display="none" fill="#896C64" d="M468.201,456.599C502.89,489.043,536.21,522.505,565.476,560h67.939
		c-0.616-0.906-1.247-1.824-1.902-2.75c-41.579-58.803-94.237-107.984-149.266-153.979C407.89,341.125,330.281,282.789,249,229.973
		c-10.553-6.855-23.862-10.367-32.439,2c-6.282,9.057-4.033,21.489,5.022,27.771c0,0,0.128,0.089,0.148,0.103
		C308.162,319.771,391.352,384.722,468.201,456.599z"/>
	<path display="none" fill="#59433D" d="M509.599,471.172c-85.922-79.854-178.934-152.013-275.567-218.588
		c-0.023-0.017-0.165-0.114-0.165-0.114c-9.226-6.359-12.105-18.386-7.235-28.084c-3.706,1.031-7.16,3.394-10.069,7.587
		c-6.281,9.057-4.033,21.489,5.023,27.771c0,0,0.128,0.089,0.149,0.103c86.43,59.927,169.62,124.877,246.47,196.754
		c34.688,32.444,68.01,65.907,97.276,103.401h31.356C569.674,528.605,540.114,499.531,509.599,471.172z"/>
	<g display="none">
		<circle display="inline" fill="#E854BE" cx="291.372" cy="247.672" r="20.338"/>
		<circle display="inline" fill="#E854BE" cx="380.251" cy="377.769" r="20.338"/>
		<circle display="inline" fill="#E854BE" cx="579.508" cy="489.7" r="20.338"/>
	</g>
	<path fill="#EFEF92" d="M642.548,314.1l-37.39-134.148l-87.937-27.011c-27.464,11.584-47.31,38.78-47.31,70.325
		c0,23.651,6.59,42.478,17.611,57.442c8.293,11.297,19.111,20.387,31.525,27.678c18.146,10.681,39.688,17.512,61.696,21.805
		C616.778,324.409,642.548,314.1,642.548,314.1z"/>
	<path fill="#0FEFBA" d="M550.219,124.521c-0.06,0-0.119,0-0.188-0.012c-42.989-1.989-80.117,33.063-80.117,76.221
		c0,23.65,6.59,42.478,17.61,57.442h56.196l73.808-59.587v-41.572C598.021,138.582,575.502,125.749,550.219,124.521z"/>
	<path fill="#424342" d="M698.904,292.475c-9.531-25.247-28.667-70.047-56.357-107.043l-25.021,13.153l-73.808,59.587
		l-24.669,27.677c49.923,29.383,125.511,29.74,165.976,27.772C695.628,313.11,702.658,302.41,698.904,292.475z"/>
	<path fill="#EEEEEC" d="M642.548,185.432c-27.428,45.693-71.096,81.533-123.497,100.419c-12.416-7.292-23.232-16.383-31.525-27.677
		c57.202-14.572,104.481-51.997,130.003-101.158C626.51,165.497,634.862,175.16,642.548,185.432z"/>
</g>
</svg>
